<svg width="70" height="70" fill="none" xmlns="http://www.w3.org/2000/svg"><path d="M58.987 53.4h-1.4v1.4c0 1.7-1.4 3.1-3.2 3.1h-20.9v3.9c0 1.8-1.4 3.2-3.2 3.2h-14.2a3.2 3.2 0 0 1-3.2-3.2V47.5c0-1.8 1.5-3.3 3.2-3.3a15.002 15.002 0 0 1-3.5-2.5v-.1l-.2-.1a15 15 0 0 1 0-21.2h.1l.1-.2a15 15 0 0 1 12.3-4.1v-3.3c0-1.7 1.4-3.2 3.2-3.2h1.4V8.2c0-1.8 1.4-3.2 3.1-3.2h26.5c1.6 0 3 1.4 3 3.2v42c0 1.8-1.4 3.2-3.1 3.2Zm-25.5 2.8h21c.7 0 1.3-.6 1.3-1.4v-1.4h-22.3v2.8ZM16.087 46c-.8 0-1.4.7-1.4 1.5v14.3c0 .8.6 1.4 1.4 1.4h14.3c.8 0 1.5-.6 1.5-1.4V47.5c0-.8-.7-1.5-1.5-1.5h-14.3Zm17.5-14.2c-.2 2.2-1.1 4.2-2.4 5.7l2.1 2.2c1.9-2.2 3-5 3.3-8h-3v.1Zm3-1.8c-.2-3-1.4-5.7-3.3-7.9l-2.2 2.2c1.3 1.5 2.2 3.5 2.4 5.7h3.1Zm-6.7 8.8a10.3 10.3 0 0 1-5.7 2.4v3c3-.2 5.7-1.4 7.9-3.3l-2.2-2.1Zm-7.5 5.4v-3c-2.2-.2-4.2-1-5.7-2.4l-2.2 2.1c2.2 2 4.9 3.1 7.9 3.3Zm-9.1-4.5 2.1-2.2a10.3 10.3 0 0 1-2.4-5.7h-3c.2 3 1.4 5.7 3.3 7.9Zm-3.4-9.7h3a10 10 0 0 1 2.4-5.8l-2.1-2a12.4 12.4 0 0 0-3.3 7.8Zm12.4-12.4c-3 .2-5.7 1.4-7.9 3.3l2.2 2.1c1.5-1.3 3.5-2.2 5.7-2.4v-3Zm-7.7 13.3a8.6 8.6 0 1 0 8.5-8.6 8.6 8.6 0 0 0-8.4 8.7l-.1-.1Zm14.9-19.6h-1.4c-.8 0-1.4.6-1.4 1.4v3.5c1 .2 1.9.6 2.8 1v-5.9Zm-5.4 6.3v3c2.1.2 4.1 1 5.7 2.4l2.3-2c-2.2-1.9-5-3.1-8-3.3v-.1Zm36.2 32.6v-42c0-.8-.6-1.4-1.3-1.4h-26.4c-.8 0-1.4.6-1.4 1.4v10c.937.57 1.809 1.24 2.6 2l.1.1a15 15 0 0 1 0 21.2l-.1.1c-1 1-2.3 2-3.6 2.6h.1c1.8 0 3.2 1.5 3.2 3.3v4.1h25.6c.7 0 1.3-.6 1.3-1.4h-.1Zm-4.3-.8a1.3 1.3 0 0 1-2.2 0l-2.3-3.2c-.3-.5-.3-1.1 0-1.6l2.3-3.2a1.3 1.3 0 0 1 2.2 0l2.2 3.2c.4.5.4 1.1 0 1.6l-2.1 3.2h-.1Zm-1.1-6.5-1.8 2.5 1.8 2.5 1.7-2.5-1.7-2.5Zm-7.8-6.7a1.7 1.7 0 0 1-2.8 0l-4.3-6c-.4-.6-.4-1.4 0-2l4.3-6c.3-.5.8-.8 1.4-.8.5 0 1 .3 1.4.7l4.3 6.1c.4.6.4 1.4 0 2l-4.3 6Zm-1.4-13-4.3 6 4.3 6 4.2-6-4.2-6Zm-8-6.2a1.3 1.3 0 0 1-2.2 0l-2.3-3.3c-.3-.4-.3-1 0-1.5l2.4-3.2a1.3 1.3 0 0 1 2.2 0l2.3 3.2c.3.5.3 1 0 1.5l-2.3 3.3h-.1Zm-1.1-6.5-1.7 2.5 1.8 2.5 1.8-2.5-1.8-2.5h-.1Zm-8.4 21.7-2.5 1.3-1.4 2.5a1.4 1.4 0 0 1-2.5 0l-1.3-2.5-2.5-1.3c-.5-.3-.8-.8-.8-1.3s.3-1 .8-1.3l2.5-1.3 1.3-2.5a1.4 1.4 0 0 1 2.5 0l1.4 2.5 2.5 1.3a1.4 1.4 0 0 1 0 2.6Zm-3.4-2.4-.6-.6-1.1-2-1.1 2-.6.6-2 1 2 1.2.6.6 1 2 1.2-2c.1-.3.3-.5.6-.6l2-1.1-2-1.1Zm2.9 32.2c-.7 0-1.3-.2-1.8-.7a2.6 2.6 0 1 1 1.8.7Zm.6-3.1a.799.799 0 0 0-.6-.3.8.8 0 0 0-.5 1.4c.1.2.3.3.5.3.3 0 .5-.1.6-.3.3-.3.3-.8 0-1.1Zm-.6-6.5c-.7 0-1.3-.2-1.8-.7a2.6 2.6 0 1 1 1.8.7Zm.6-3.1a.799.799 0 0 0-.6-.3c-.2 0-.4.1-.5.3-.4.3-.4.8 0 1.1.1.2.3.3.5.3.3 0 .5-.1.6-.3.3-.3.3-.8 0-1.1Zm-3.3 7a2.6 2.6 0 1 1-3.6-3.752 2.6 2.6 0 0 1 3.6 3.752Zm-1.2-2.3a.799.799 0 0 0-.6-.2c-.2 0-.4 0-.6.2a1 1 0 0 0 0 1.2c.2.2.4.2.6.2a.8.8 0 0 0 .6-1.4Zm-5.2-1.5c-.7 0-1.3-.2-1.8-.7a2.6 2.6 0 1 1 1.8.7Zm.6-3.1a.799.799 0 0 0-.6-.3c-.2 0-.4.1-.5.3-.4.3-.4.8 0 1.1.1.2.3.3.5.3a.8.8 0 0 0 .6-1.4Zm-.6 7.6c.7 0 1.4.2 1.9.7a2.6 2.6 0 1 1-1.9-.7Zm-.5 3c.1.2.3.3.6.3a.8.8 0 0 0 .4-1.3.8.8 0 0 0-.5-.3.8.8 0 0 0-.6 1.4l.1-.1Z" fill="#fff"/></svg>