<svg width="70" height="71" fill="none" xmlns="http://www.w3.org/2000/svg"><path d="M35.5 5.5a30.5 30.5 0 1 0 0 61 30.5 30.5 0 0 0 0-61Zm23.6 14.6-2 9-11.2 3.7-9.4-7.5v-11l10.7-4.2c4.8 2.1 9 5.6 12 10h-.1Zm.2 31.5-10 1.6-5.6-7.3 2.8-11.1 11-3.7 6.3 7.6c-.4 4.6-2 9-4.5 12.9Zm-37.5 1.6-10-1.6a28.3 28.3 0 0 1-4.6-13l6.3-7.5 11 3.7 2.8 11.1-5.5 7.3ZM7 35.6c.1-4.5 1.2-9 3.4-13l1.6 7-5 6Zm22.2 9.5-2.7-10.8 9-7.2 9 7.3-2.7 10.7H29.2ZM59 29.6l1.6-7c2.2 4 3.3 8.5 3.4 13l-5-6ZM44.4 9l-8.9 3.5-9-3.5c5.8-2 12.1-2 18 0h-.1Zm-20.6 1 10.7 4.3v11L25 32.8l-11-3.7-2.1-9c3-4.4 7-7.8 11.9-10V10ZM13.4 54l8.3 1.2 5 7.9a28.6 28.6 0 0 1-13.3-9.2v.1Zm16.2 9.8-6-9.5 5.3-7.1H42l5.5 7.2-5.3 9.2c-4.2 1-8.5 1.1-12.7.2h.1Zm15.5-1 4.3-7.6 8.2-1.3c-3.3 4-7.6 7.1-12.5 8.9Z" fill="#fff"/></svg>