<svg width="70" height="71" fill="none" xmlns="http://www.w3.org/2000/svg"><g fill="#fff"><path fill-rule="evenodd" clip-rule="evenodd" d="m13.43 18.5 3.1 4.9a4 4 0 0 1 0 4.4l-3.1 4.7h44.8l4.6-7-4.6-7h-44.8Zm-1.7 1.1a2 2 0 0 1 1.7-3.1h44.8a2 2 0 0 1 1.7 1l4.6 7 .3 1.2.2.1-.5.9-4.6 7c-.4.6-1 1-1.7 1h-44.8a2 2 0 0 1-1.7-3.2l3.1-5a2 2 0 0 0 0-2.1l-3.1-4.9v.1Zm0 19.1-4.7 7 4.7 7.1h45.7l-3.2-4.8a4 4 0 0 1 0-4.4l3.2-4.9h-45.7Zm-1.7-1.1c.3-.6 1-1 1.7-1h45.7a2 2 0 0 1 1.7 3.2l-3.2 4.9a2 2 0 0 0 0 2.2l3.2 4.8a2 2 0 0 1-1.7 3.2h-45.7a2 2 0 0 1-1.7-1l-4.7-7a2 2 0 0 1 0-2.2l4.7-7.2v.1Z"/><path d="M28.73 26h-3.4v3.5h-1.5v-8.6h5.4v1.2h-4v2.6h3.5V26Zm4.9.3h-1.7v3.3h-1.5V21h3c1 0 1.8.2 2.4.7.5.4.8 1 .8 2 0 .5-.2 1-.4 1.4l-1.2.9 2 3.5v.1h-1.7l-1.7-3.3Zm-1.7-1.2h1.6c.5 0 .9-.1 1.2-.4.2-.2.4-.6.4-1 0-.5-.2-.8-.4-1-.3-.3-.7-.5-1.2-.5h-1.5v2.9h-.1Zm11.1.7h-3.5v2.6h4.1v1.2h-5.6V21h5.6v1.2h-4.1v2.4h3.5v1.2Zm6.9 0h-3.6v2.6h4.2v1.2h-5.7V21h5.6v1.2h-4v2.4h3.5v1.2Zm-25.9 20.7h-1.8v3.3h-1.4v-8.6h3c1 0 1.7.2 2.3.7.5.4.8 1 .8 1.9 0 .6-.1 1-.4 1.4-.3.4-.7.7-1.2 1l2 3.5v.1h-1.7l-1.6-3.3Zm-1.8-1.2h1.6c.5 0 .9-.1 1.2-.4.3-.2.4-.6.4-1 0-.5-.1-.9-.4-1.1-.3-.3-.7-.4-1.2-.4h-1.6v2.9Zm7.7 4.5h-1.5v-8.6h1.5v8.6Zm6.3-2.3a.999.999 0 0 0-.4-.8c-.2-.2-.7-.4-1.4-.6a7.002 7.002 0 0 1-1.7-.7c-.8-.5-1.1-1.1-1.1-2 0-.6.2-1.2.8-1.6.6-.5 1.3-.7 2.2-.7.6 0 1.1 0 1.6.3.5.2.8.5 1.1 1 .3.4.4.8.4 1.3h-1.5c0-.4-.1-.8-.4-1-.3-.3-.7-.4-1.2-.4s-.9 0-1.1.3a1 1 0 0 0-.4.9c0 .3.1.5.4.8l1.4.6 1.6.6c.5.3.8.6 1 1l.2 1a2 2 0 0 1-.8 1.8c-.6.4-1.3.6-2.2.6-.7 0-1.2 0-1.8-.3a3 3 0 0 1-1.2-1c-.3-.4-.4-.9-.4-1.4h1.5c0 .5.1.9.5 1.1.3.3.8.4 1.4.4.5 0 .9 0 1.1-.3.3-.2.4-.5.4-.8v-.1Zm5.3-1.4-1 1v2.7h-1.5v-8.6h1.5v4l.9-1 2.5-3h1.8l-3.2 3.8 3.4 4.8h-1.9l-2.6-3.7h.1Z"/></g></svg>