<svg width="26" height="25" fill="none" xmlns="http://www.w3.org/2000/svg"><g clip-path="url(#a)"><path d="m24 15.125-2.734 1.39-4.657-4.562 3.828-4.156L24 10.016c.953.546 1.5 1.515 1.5 2.625 0 1.093-.547 2.078-1.375 2.625L24 15.125ZM4.86.469a2.703 2.703 0 0 1 2.984 0l11.343 6.515-3.53 4L4.858.454v.015Zm-.83 22.968a3.078 3.078 0 0 1-.406-1.375V2.97c0-.563.14-1.11.406-1.531l10.69 10.374L3.906 23.578l.156-.156-.03.015Zm15.86-6.078L7.719 24.547a2.703 2.703 0 0 1-3 0l11.078-11.485 4.375 4.297h-.281Z" fill="#000"/></g><defs><clipPath id="a"><path fill="#fff" transform="translate(.5)" d="M0 0h25v25H0z"/></clipPath></defs></svg>