<svg width="276" height="127" fill="none" xmlns="http://www.w3.org/2000/svg"><path fill-rule="evenodd" clip-rule="evenodd" d="m54.283 25-.308 1.524c-.102.305-.308.61-.72.711l-1.543.305 1.543.304c.308.101.618.304.72.711l.308 1.525.308-1.525c.102-.304.308-.61.72-.71l1.543-.305-1.543-.305c-.308-.1-.618-.304-.72-.71L54.283 25Zm-9.258 9.757c-.308 1.22-1.235 2.236-2.469 2.439L37 38.416l5.555 1.118c1.235.304 2.262 1.22 2.468 2.439l1.132 5.488 1.131-5.488c.308-1.22 1.235-2.236 2.469-2.439l5.554-1.118-5.554-1.118c-1.236-.304-2.263-1.22-2.469-2.439l-1.131-5.487-1.13 5.385ZM58.914 44.82c-.102.508-.514 1.017-1.132 1.118l-2.468.508 2.468.507c.514.101 1.03.508 1.132 1.118l.514 2.439.513-2.44c.103-.507.514-1.016 1.132-1.117l2.468-.508-2.468-.507c-.514-.101-1.03-.508-1.132-1.118l-.513-2.439-.514 2.439Zm-3.396 9.96c-4.527 0-7.715 1.728-8.538 6.302l-.72 3.963c-.102.305-.102.61-.102.915 0 2.235 1.543 3.862 3.601 5.183l3.19 2.033c1.029.61 1.543 1.32 1.543 2.439 0 .304 0 .61-.102.914l-.412 2.439c-.308 1.83-1.543 2.744-3.086 2.744-1.337 0-2.16-.61-2.16-2.032 0-.203 0-.407.102-.71l.823-4.574h-4.939l-.925 5.286c-.102.507-.102 1.017-.102 1.423 0 3.66 2.778 4.88 6.481 4.88h.102c5.041 0 7.716-1.627 8.539-6.404l.823-4.37c.102-.407.102-.814.102-1.22 0-2.236-1.44-3.456-3.703-4.88l-3.19-2.032c-1.029-.61-1.44-1.321-1.44-2.338 0-.304 0-.61.102-.914l.411-2.135c.308-1.931 1.543-2.642 2.984-2.642 1.235 0 2.16.507 2.16 1.931 0 .203 0 .407-.102.711l-.823 4.27h4.939l.823-4.981c.102-.508.102-.914.102-1.321-.001-3.456-3.087-4.88-6.483-4.88Zm169.132.713-.309 1.627h5.966l-5.144 28.866h1.751l5.144-28.866h5.966l.308-1.627H224.65Zm-13.991 0-5.351 30.493h11.729l.307-1.627h-9.979l2.263-13.01h8.538l.309-1.626h-8.643l2.161-12.502h9.875l.308-1.728h-11.517Zm-19.754 0-5.452 30.493h7.201c5.144 0 7.305-2.642 7.921-5.997l.925-4.98c0-.304.103-.61.103-.915 0-1.727-.823-3.558-2.88-3.862 2.88-.304 4.011-2.541 4.321-4.777l.617-3.862c.102-.407.102-.814.102-1.22 0-2.745-1.85-4.777-5.658-4.777h-7.201l.001-.103Zm1.385 1.422h5.099c2.983 0 4.115 1.118 4.115 3.355 0 .508-.103 1.118-.206 1.728l-.617 3.558c-.413 2.541-2.367 3.66-5.555 3.66h-4.922l2.086-12.3Zm-2.412 13.823h5.35c2.778 0 4.115.915 4.217 2.745 0 .203 0 .507-.102.813l-.823 4.574c-.514 3.252-1.955 4.98-5.555 4.98h-5.35l2.263-13.112Zm-17.387-15.245-5.453 30.493h13.785l.823-4.473h-8.642l1.647-8.842h7.099l.823-4.473h-7.098l1.441-8.335h8.436l.823-4.37h-13.684Zm-19.238 0-5.35 30.493h5.041l2.16-12.197h2.674l1.647 12.197h5.041l-2.057-12.806c2.263-.914 3.704-2.745 4.217-5.794l.926-5.488c.102-.507.102-.914.102-1.423 0-3.558-2.88-5.083-6.687-5.083h-7.715l.001.101Zm4.423 4.37h2.572c1.442 0 2.367.407 2.367 1.931 0 .204 0 .508-.102.814l-.72 3.963c-.412 2.135-1.543 2.745-3.189 2.745h-2.573l1.645-9.453Zm-13.991-4.37-5.247 30.493h5.042l5.246-30.493h-5.041Zm-9.568 0-2.263 12.705h-5.76l2.263-12.705h-5.041l-5.35 30.493h5.041l2.366-13.213h5.76l-2.366 13.213h5.041l5.351-30.493h-5.042Zm-30.04 0-5.35 30.493h5.04l2.057-11.79h2.778c5.041 0 7.921-1.831 8.745-6.404l1.029-5.794c.102-.508.102-.915.102-1.424 0-3.558-2.88-5.082-6.687-5.082.001.001-7.714.001-7.714.001Zm4.423 4.37h2.572c1.441 0 2.367.407 2.367 1.931 0 .204 0 .508-.102.814l-.72 4.066c-.412 2.134-1.543 2.642-3.19 2.642h-2.572l1.645-9.453Zm-23.559-4.37-5.35 30.493h5.04l2.058-11.79h2.778c5.04 0 7.92-1.831 8.744-6.404l1.03-5.794c.101-.508.101-.915.101-1.424 0-3.558-2.88-5.082-6.687-5.082.001.001-7.714.001-7.714.001Zm4.424 4.37h2.572c1.44 0 2.366.407 2.366 1.931 0 .204 0 .508-.102.814l-.72 4.066c-.411 2.134-1.543 2.642-3.19 2.642H87.72l1.646-9.453Zm-19.34-4.37-11.01 30.493h4.94l2.262-6.81h5.555l-.102 6.81h4.938l-.411-30.493h-6.172Zm2.262 5.794L71.98 75.11h-4.115l4.423-13.823Z" fill="url(#a)"/><g filter="url(#b)"><mask id="d" maskUnits="userSpaceOnUse" x="36" y="24" width="204" height="63" fill="#000"><path fill="#fff" d="M36 24h204v63H36z"/><path fill-rule="evenodd" clip-rule="evenodd" d="m54.283 25-.308 1.524c-.102.305-.308.61-.72.711l-1.543.305 1.543.304c.308.101.618.304.72.711l.308 1.525.308-1.525c.102-.304.308-.61.72-.71l1.543-.305-1.543-.305c-.308-.1-.618-.304-.72-.71L54.283 25Zm-9.258 9.757c-.308 1.22-1.235 2.236-2.469 2.439L37 38.416l5.555 1.118c1.235.304 2.262 1.22 2.468 2.439l1.132 5.488 1.131-5.488c.308-1.22 1.235-2.236 2.469-2.439l5.554-1.118-5.554-1.118c-1.236-.304-2.263-1.22-2.469-2.439l-1.131-5.487-1.13 5.385ZM58.914 44.82c-.102.508-.514 1.017-1.132 1.118l-2.468.508 2.468.507c.514.101 1.03.508 1.132 1.118l.514 2.439.513-2.44c.103-.507.514-1.016 1.132-1.117l2.468-.508-2.468-.507c-.514-.101-1.03-.508-1.132-1.118l-.513-2.439-.514 2.439Zm-3.396 9.96c-4.527 0-7.715 1.728-8.538 6.302l-.72 3.963c-.102.305-.102.61-.102.915 0 2.235 1.543 3.862 3.601 5.183l3.19 2.033c1.029.61 1.543 1.32 1.543 2.439 0 .304 0 .61-.102.914l-.412 2.439c-.308 1.83-1.543 2.744-3.086 2.744-1.337 0-2.16-.61-2.16-2.032 0-.203 0-.407.102-.71l.823-4.574h-4.939l-.925 5.286c-.102.507-.102 1.017-.102 1.423 0 3.66 2.778 4.88 6.481 4.88h.102c5.041 0 7.716-1.627 8.54-6.404l.822-4.37c.102-.407.102-.814.102-1.22 0-2.236-1.44-3.456-3.703-4.88l-3.19-2.032c-1.029-.61-1.44-1.321-1.44-2.338 0-.304 0-.61.102-.914l.411-2.135c.308-1.931 1.543-2.642 2.984-2.642 1.235 0 2.16.507 2.16 1.931 0 .203 0 .407-.102.711l-.823 4.27h4.939l.823-4.981c.102-.508.102-.914.102-1.321-.001-3.456-3.087-4.88-6.483-4.88Zm169.132.713-.309 1.627h5.966l-5.144 28.866h1.751l5.144-28.866h5.966l.308-1.627H224.65Zm-13.991 0-5.351 30.493h11.729l.307-1.627h-9.979l2.263-13.01h8.538l.309-1.626h-8.643l2.161-12.502h9.875l.308-1.728h-11.517Zm-19.754 0-5.452 30.493h7.201c5.144 0 7.305-2.642 7.921-5.997l.925-4.98c0-.304.103-.61.103-.915 0-1.727-.823-3.558-2.88-3.862 2.88-.304 4.011-2.541 4.321-4.777l.617-3.862c.102-.407.102-.814.102-1.22 0-2.745-1.85-4.777-5.658-4.777h-7.201l.001-.103Zm1.385 1.422h5.099c2.983 0 4.115 1.118 4.115 3.355 0 .508-.103 1.118-.206 1.728l-.617 3.558c-.413 2.541-2.367 3.66-5.555 3.66h-4.922l2.086-12.3Zm-2.412 13.823h5.35c2.778 0 4.115.915 4.217 2.745 0 .203 0 .507-.102.813l-.823 4.574c-.514 3.252-1.955 4.98-5.555 4.98h-5.35l2.263-13.112Zm-17.387-15.245-5.453 30.493h13.785l.823-4.473h-8.642l1.647-8.842h7.099l.823-4.473h-7.098l1.441-8.335h8.436l.823-4.37h-13.684Zm-19.238 0-5.35 30.493h5.041l2.16-12.197h2.674l1.647 12.197h5.041l-2.057-12.806c2.263-.914 3.704-2.745 4.217-5.794l.926-5.488c.102-.507.102-.914.102-1.423 0-3.558-2.88-5.083-6.687-5.083h-7.715l.001.101Zm4.423 4.37h2.572c1.442 0 2.367.407 2.367 1.931 0 .204 0 .508-.102.814l-.72 3.963c-.412 2.135-1.543 2.745-3.189 2.745h-2.573l1.645-9.453Zm-13.991-4.37-5.247 30.493h5.042l5.246-30.493h-5.041Zm-9.568 0-2.263 12.705h-5.76l2.263-12.705h-5.041l-5.35 30.493h5.041l2.366-13.213h5.76l-2.366 13.213h5.041l5.351-30.493h-5.042Zm-30.04 0-5.35 30.493h5.04l2.057-11.79h2.778c5.041 0 7.921-1.831 8.745-6.404l1.029-5.794c.102-.508.102-.915.102-1.424 0-3.558-2.88-5.082-6.687-5.082.001.001-7.714.001-7.714.001Zm4.423 4.37h2.572c1.441 0 2.367.407 2.367 1.931 0 .204 0 .508-.102.814l-.72 4.066c-.412 2.134-1.543 2.642-3.19 2.642h-2.572l1.645-9.453Zm-23.559-4.37-5.35 30.493h5.04l2.058-11.79h2.778c5.04 0 7.92-1.831 8.744-6.404l1.03-5.794c.101-.508.101-.915.101-1.424 0-3.558-2.88-5.082-6.687-5.082.001.001-7.714.001-7.714.001Zm4.424 4.37h2.572c1.44 0 2.366.407 2.366 1.931 0 .204 0 .508-.102.814l-.72 4.066c-.411 2.134-1.543 2.642-3.19 2.642H87.72l1.646-9.453Zm-19.34-4.37-11.01 30.493h4.94l2.262-6.81h5.555l-.102 6.81h4.938l-.411-30.493h-6.172Zm2.262 5.794L71.98 75.11h-4.115l4.423-13.823Z"/></mask><path fill-rule="evenodd" clip-rule="evenodd" d="m54.283 25-.308 1.524c-.102.305-.308.61-.72.711l-1.543.305 1.543.304c.308.101.618.304.72.711l.308 1.525.308-1.525c.102-.304.308-.61.72-.71l1.543-.305-1.543-.305c-.308-.1-.618-.304-.72-.71L54.283 25Zm-9.258 9.757c-.308 1.22-1.235 2.236-2.469 2.439L37 38.416l5.555 1.118c1.235.304 2.262 1.22 2.468 2.439l1.132 5.488 1.131-5.488c.308-1.22 1.235-2.236 2.469-2.439l5.554-1.118-5.554-1.118c-1.236-.304-2.263-1.22-2.469-2.439l-1.131-5.487-1.13 5.385ZM58.914 44.82c-.102.508-.514 1.017-1.132 1.118l-2.468.508 2.468.507c.514.101 1.03.508 1.132 1.118l.514 2.439.513-2.44c.103-.507.514-1.016 1.132-1.117l2.468-.508-2.468-.507c-.514-.101-1.03-.508-1.132-1.118l-.513-2.439-.514 2.439Zm-3.396 9.96c-4.527 0-7.715 1.728-8.538 6.302l-.72 3.963c-.102.305-.102.61-.102.915 0 2.235 1.543 3.862 3.601 5.183l3.19 2.033c1.029.61 1.543 1.32 1.543 2.439 0 .304 0 .61-.102.914l-.412 2.439c-.308 1.83-1.543 2.744-3.086 2.744-1.337 0-2.16-.61-2.16-2.032 0-.203 0-.407.102-.71l.823-4.574h-4.939l-.925 5.286c-.102.507-.102 1.017-.102 1.423 0 3.66 2.778 4.88 6.481 4.88h.102c5.041 0 7.716-1.627 8.54-6.404l.822-4.37c.102-.407.102-.814.102-1.22 0-2.236-1.44-3.456-3.703-4.88l-3.19-2.032c-1.029-.61-1.44-1.321-1.44-2.338 0-.304 0-.61.102-.914l.411-2.135c.308-1.931 1.543-2.642 2.984-2.642 1.235 0 2.16.507 2.16 1.931 0 .203 0 .407-.102.711l-.823 4.27h4.939l.823-4.981c.102-.508.102-.914.102-1.321-.001-3.456-3.087-4.88-6.483-4.88Zm169.132.713-.309 1.627h5.966l-5.144 28.866h1.751l5.144-28.866h5.966l.308-1.627H224.65Zm-13.991 0-5.351 30.493h11.729l.307-1.627h-9.979l2.263-13.01h8.538l.309-1.626h-8.643l2.161-12.502h9.875l.308-1.728h-11.517Zm-19.754 0-5.452 30.493h7.201c5.144 0 7.305-2.642 7.921-5.997l.925-4.98c0-.304.103-.61.103-.915 0-1.727-.823-3.558-2.88-3.862 2.88-.304 4.011-2.541 4.321-4.777l.617-3.862c.102-.407.102-.814.102-1.22 0-2.745-1.85-4.777-5.658-4.777h-7.201l.001-.103Zm1.385 1.422h5.099c2.983 0 4.115 1.118 4.115 3.355 0 .508-.103 1.118-.206 1.728l-.617 3.558c-.413 2.541-2.367 3.66-5.555 3.66h-4.922l2.086-12.3Zm-2.412 13.823h5.35c2.778 0 4.115.915 4.217 2.745 0 .203 0 .507-.102.813l-.823 4.574c-.514 3.252-1.955 4.98-5.555 4.98h-5.35l2.263-13.112Zm-17.387-15.245-5.453 30.493h13.785l.823-4.473h-8.642l1.647-8.842h7.099l.823-4.473h-7.098l1.441-8.335h8.436l.823-4.37h-13.684Zm-19.238 0-5.35 30.493h5.041l2.16-12.197h2.674l1.647 12.197h5.041l-2.057-12.806c2.263-.914 3.704-2.745 4.217-5.794l.926-5.488c.102-.507.102-.914.102-1.423 0-3.558-2.88-5.083-6.687-5.083h-7.715l.001.101Zm4.423 4.37h2.572c1.442 0 2.367.407 2.367 1.931 0 .204 0 .508-.102.814l-.72 3.963c-.412 2.135-1.543 2.745-3.189 2.745h-2.573l1.645-9.453Zm-13.991-4.37-5.247 30.493h5.042l5.246-30.493h-5.041Zm-9.568 0-2.263 12.705h-5.76l2.263-12.705h-5.041l-5.35 30.493h5.041l2.366-13.213h5.76l-2.366 13.213h5.041l5.351-30.493h-5.042Zm-30.04 0-5.35 30.493h5.04l2.057-11.79h2.778c5.041 0 7.921-1.831 8.745-6.404l1.029-5.794c.102-.508.102-.915.102-1.424 0-3.558-2.88-5.082-6.687-5.082.001.001-7.714.001-7.714.001Zm4.423 4.37h2.572c1.441 0 2.367.407 2.367 1.931 0 .204 0 .508-.102.814l-.72 4.066c-.412 2.134-1.543 2.642-3.19 2.642h-2.572l1.645-9.453Zm-23.559-4.37-5.35 30.493h5.04l2.058-11.79h2.778c5.04 0 7.92-1.831 8.744-6.404l1.03-5.794c.101-.508.101-.915.101-1.424 0-3.558-2.88-5.082-6.687-5.082.001.001-7.714.001-7.714.001Zm4.424 4.37h2.572c1.44 0 2.366.407 2.366 1.931 0 .204 0 .508-.102.814l-.72 4.066c-.411 2.134-1.543 2.642-3.19 2.642H87.72l1.646-9.453Zm-19.34-4.37-11.01 30.493h4.94l2.262-6.81h5.555l-.102 6.81h4.938l-.411-30.493h-6.172Zm2.262 5.794L71.98 75.11h-4.115l4.423-13.823Z" fill="url(#c)" shape-rendering="crispEdges"/><path clip-rule="evenodd" d="m54.283 25-.308 1.524c-.102.305-.308.61-.72.711l-1.543.305 1.543.304c.308.101.618.304.72.711l.308 1.525.308-1.525c.102-.304.308-.61.72-.71l1.543-.305-1.543-.305c-.308-.1-.618-.304-.72-.71L54.283 25Zm-9.258 9.757c-.308 1.22-1.235 2.236-2.469 2.439L37 38.416l5.555 1.118c1.235.304 2.262 1.22 2.468 2.439l1.132 5.488 1.131-5.488c.308-1.22 1.235-2.236 2.469-2.439l5.554-1.118-5.554-1.118c-1.236-.304-2.263-1.22-2.469-2.439l-1.131-5.487-1.13 5.385ZM58.914 44.82c-.102.508-.514 1.017-1.132 1.118l-2.468.508 2.468.507c.514.101 1.03.508 1.132 1.118l.514 2.439.513-2.44c.103-.507.514-1.016 1.132-1.117l2.468-.508-2.468-.507c-.514-.101-1.03-.508-1.132-1.118l-.513-2.439-.514 2.439Zm-3.396 9.96c-4.527 0-7.715 1.728-8.538 6.302l-.72 3.963c-.102.305-.102.61-.102.915 0 2.235 1.543 3.862 3.601 5.183l3.19 2.033c1.029.61 1.543 1.32 1.543 2.439 0 .304 0 .61-.102.914l-.412 2.439c-.308 1.83-1.543 2.744-3.086 2.744-1.337 0-2.16-.61-2.16-2.032 0-.203 0-.407.102-.71l.823-4.574h-4.939l-.925 5.286c-.102.507-.102 1.017-.102 1.423 0 3.66 2.778 4.88 6.481 4.88h.102c5.041 0 7.716-1.627 8.54-6.404l.822-4.37c.102-.407.102-.814.102-1.22 0-2.236-1.44-3.456-3.703-4.88l-3.19-2.032c-1.029-.61-1.44-1.321-1.44-2.338 0-.304 0-.61.102-.914l.411-2.135c.308-1.931 1.543-2.642 2.984-2.642 1.235 0 2.16.507 2.16 1.931 0 .203 0 .407-.102.711l-.823 4.27h4.939l.823-4.981c.102-.508.102-.914.102-1.321-.001-3.456-3.087-4.88-6.483-4.88Zm169.132.713-.309 1.627h5.966l-5.144 28.866h1.751l5.144-28.866h5.966l.308-1.627H224.65Zm-13.991 0-5.351 30.493h11.729l.307-1.627h-9.979l2.263-13.01h8.538l.309-1.626h-8.643l2.161-12.502h9.875l.308-1.728h-11.517Zm-19.754 0-5.452 30.493h7.201c5.144 0 7.305-2.642 7.921-5.997l.925-4.98c0-.304.103-.61.103-.915 0-1.727-.823-3.558-2.88-3.862 2.88-.304 4.011-2.541 4.321-4.777l.617-3.862c.102-.407.102-.814.102-1.22 0-2.745-1.85-4.777-5.658-4.777h-7.201l.001-.103Zm1.385 1.422h5.099c2.983 0 4.115 1.118 4.115 3.355 0 .508-.103 1.118-.206 1.728l-.617 3.558c-.413 2.541-2.367 3.66-5.555 3.66h-4.922l2.086-12.3Zm-2.412 13.823h5.35c2.778 0 4.115.915 4.217 2.745 0 .203 0 .507-.102.813l-.823 4.574c-.514 3.252-1.955 4.98-5.555 4.98h-5.35l2.263-13.112Zm-17.387-15.245-5.453 30.493h13.785l.823-4.473h-8.642l1.647-8.842h7.099l.823-4.473h-7.098l1.441-8.335h8.436l.823-4.37h-13.684Zm-19.238 0-5.35 30.493h5.041l2.16-12.197h2.674l1.647 12.197h5.041l-2.057-12.806c2.263-.914 3.704-2.745 4.217-5.794l.926-5.488c.102-.507.102-.914.102-1.423 0-3.558-2.88-5.083-6.687-5.083h-7.715l.001.101Zm4.423 4.37h2.572c1.442 0 2.367.407 2.367 1.931 0 .204 0 .508-.102.814l-.72 3.963c-.412 2.135-1.543 2.745-3.189 2.745h-2.573l1.645-9.453Zm-13.991-4.37-5.247 30.493h5.042l5.246-30.493h-5.041Zm-9.568 0-2.263 12.705h-5.76l2.263-12.705h-5.041l-5.35 30.493h5.041l2.366-13.213h5.76l-2.366 13.213h5.041l5.351-30.493h-5.042Zm-30.04 0-5.35 30.493h5.04l2.057-11.79h2.778c5.041 0 7.921-1.831 8.745-6.404l1.029-5.794c.102-.508.102-.915.102-1.424 0-3.558-2.88-5.082-6.687-5.082.001.001-7.714.001-7.714.001Zm4.423 4.37h2.572c1.441 0 2.367.407 2.367 1.931 0 .204 0 .508-.102.814l-.72 4.066c-.412 2.134-1.543 2.642-3.19 2.642h-2.572l1.645-9.453Zm-23.559-4.37-5.35 30.493h5.04l2.058-11.79h2.778c5.04 0 7.92-1.831 8.744-6.404l1.03-5.794c.101-.508.101-.915.101-1.424 0-3.558-2.88-5.082-6.687-5.082.001.001-7.714.001-7.714.001Zm4.424 4.37h2.572c1.44 0 2.366.407 2.366 1.931 0 .204 0 .508-.102.814l-.72 4.066c-.411 2.134-1.543 2.642-3.19 2.642H87.72l1.646-9.453Zm-19.34-4.37-11.01 30.493h4.94l2.262-6.81h5.555l-.102 6.81h4.938l-.411-30.493h-6.172Zm2.262 5.794L71.98 75.11h-4.115l4.423-13.823Z" stroke="#FFDE8A" stroke-width="2" stroke-linejoin="round" shape-rendering="crispEdges" mask="url(#d)"/></g><defs><linearGradient id="a" x1="37" y1="55.493" x2="237.738" y2="55.493" gradientUnits="userSpaceOnUse"><stop stop-color="#FFECDB"/><stop offset=".45" stop-color="#FFA74D"/><stop offset=".999" stop-color="#AC4C00"/></linearGradient><linearGradient id="c" x1="29.048" y1="66.591" x2="259.177" y2="66.591" gradientUnits="userSpaceOnUse"><stop stop-color="#FFE4B7"/><stop offset="1" stop-color="#FFA000" stop-opacity=".7"/></linearGradient><filter id="b" x="0" y="-8" width="275.332" height="134.986" filterUnits="userSpaceOnUse" color-interpolation-filters="sRGB"><feFlood flood-opacity="0" result="BackgroundImageFix"/><feColorMatrix in="SourceAlpha" values="0 0 0 0 0 0 0 0 0 0 0 0 0 0 0 0 0 0 127 0" result="hardAlpha"/><feOffset dy="4"/><feGaussianBlur stdDeviation="18"/><feComposite in2="hardAlpha" operator="out"/><feColorMatrix values="0 0 0 0 0 0 0 0 0 0 0 0 0 0 0 0 0 0 0.85 0"/><feBlend in2="BackgroundImageFix" result="effect1_dropShadow_1987_2623"/><feBlend in="SourceGraphic" in2="effect1_dropShadow_1987_2623" result="shape"/></filter></defs></svg>