<svg width="25" height="26" fill="none" xmlns="http://www.w3.org/2000/svg"><g clip-path="url(#a)"><mask id="b" style="mask-type:luminance" maskUnits="userSpaceOnUse" x="0" y="0" width="25" height="26"><path d="M12.5 25.5C19.404 25.5 25 19.904 25 13S19.404.5 12.5.5 0 6.096 0 13s5.596 12.5 12.5 12.5Z" fill="#fff"/></mask><g mask="url(#b)"><path d="m0 .5.39 1.074L0 2.697V3.82l1.563 2.637L0 9.094v1.562L1.563 13 0 15.344v1.562l1.563 2.637L0 22.18v3.32l1.074-.39 1.123.39H3.32l2.637-1.563L8.594 25.5h1.562l2.344-1.563 2.344 1.563h1.562l2.637-1.563L21.68 25.5H25l-.39-1.074.39-1.123V22.18l-1.563-2.637L25 16.906v-1.562L23.437 13 25 10.656V9.094l-1.563-2.637L25 3.82V.5l-1.074.39L22.803.5H21.68l-2.637 1.563L16.406.5h-1.562L12.5 2.063 10.156.5H8.594L5.957 2.063 3.32.5H0Z" fill="#EEE"/><path d="M16.406.5v5.273L21.68.5h-5.274ZM25 3.82l-5.273 5.274H25V3.82ZM0 9.094h5.273L0 3.82v5.274ZM3.32.5l5.274 5.273V.5H3.32Zm5.274 25v-5.273L3.32 25.5h5.274ZM0 22.18l5.273-5.274H0v5.274Zm25-5.274h-5.273L25 22.18v-5.274ZM21.68 25.5l-5.274-5.273V25.5h5.274Z" fill="#0052B4"/><path d="M0 .5v2.197l6.396 6.397h2.198L0 .5Zm10.156 0v10.156H0v4.688h10.156V25.5h4.688V15.344H25v-4.688H14.844V.5h-4.688Zm12.647 0-6.397 6.396v2.198L25 .5h-2.197ZM8.593 16.906 0 25.5h2.197l6.397-6.396v-2.198Zm7.813 0L25 25.5v-2.197l-6.396-6.397h-2.198Z" fill="#D80027"/></g></g><defs><clipPath id="a"><path fill="#fff" transform="translate(0 .5)" d="M0 0h25v25H0z"/></clipPath></defs></svg>